<svg xmlns="http://www.w3.org/2000/svg" viewBox="60 56 320 320" width="512" height="512">
  <g fill="#fff" stroke="#000" stroke-width="7" stroke-linejoin="round">
    <path d="M158 165 C142 115 148 70 164 68 C178 68 184 115 178 162 Z"></path>
    <path d="M282 165 C298 115 292 70 276 68 C262 68 256 115 262 162 Z"></path>
  </g>
  <g fill="none" stroke="#000" stroke-width="4" stroke-linecap="round">
    <path d="M166 145 C157 108 160 84 168 84"></path>
    <path d="M274 145 C283 108 280 84 272 84"></path>
  </g>
  <path d="M320 235 Q343.6 275.2 300.9 293.8 Q296.4 340.2 250.9 330.1 Q220 365 189.1 330.1 Q143.6 340.2 139.1 293.8 Q96.4 275.2 120 235 Q96.4 194.8 139.1 176.2 Q220 148 300.9 176.2 Q343.6 194.8 320 235 Z" fill="#fff" stroke="#000" stroke-width="7" stroke-linejoin="round"></path>
  <path d="M158 240 C158 198 186 180 220 180 C254 180 282 198 282 240 C282 292 258 328 220 328 C182 328 158 292 158 240 Z" fill="#fff" stroke="#000" stroke-width="5" stroke-linejoin="round"></path>
  <g fill="#000" stroke="#000" stroke-width="5" stroke-linejoin="round" stroke-linecap="round">
    <circle cx="150" cy="170" r="18"></circle><circle cx="185" cy="174" r="20"></circle><circle cx="220" cy="175" r="21"></circle><circle cx="255" cy="174" r="20"></circle><circle cx="290" cy="170" r="18"></circle>
    <circle cx="165" cy="142" r="20"></circle><circle cx="200" cy="138" r="24"></circle><circle cx="240" cy="138" r="24"></circle><circle cx="275" cy="142" r="20"></circle>
    <circle cx="185" cy="115" r="18"></circle><circle cx="220" cy="105" r="22"></circle><circle cx="255" cy="115" r="18"></circle>
  </g>
  <g fill="none" stroke="#000" stroke-width="7">
    <circle cx="184" cy="252" r="33"></circle><circle cx="256" cy="252" r="33"></circle>
    <path d="M215 248 q5 -8 10 0" stroke-linecap="round"></path>
    <line x1="151" y1="246" x2="136" y2="242"></line><line x1="289" y1="246" x2="304" y2="242"></line>
  </g>
  <g>
    <circle cx="184" cy="254" r="9" fill="#000"></circle><circle cx="256" cy="254" r="9" fill="#000"></circle>
    <circle cx="181" cy="251" r="3" fill="#fff"></circle><circle cx="253" cy="251" r="3" fill="#fff"></circle>
  </g>
  <path d="M214 296 h12 q2 0 1 2 l-5 7 q-2 3 -4 0 l-5 -7 q-1 -2 1 -2 Z" fill="#000"></path>
  <g fill="none" stroke="#000" stroke-width="4.5" stroke-linecap="round"><path d="M208 312 q6 6 12 0 q6 6 12 0"></path></g>
</svg>